<?xml version="1.0" encoding="UTF-8" standalone="no"?><!DOCTYPE svg PUBLIC "-//W3C//DTD SVG 1.1//EN" "http://www.w3.org/Graphics/SVG/1.1/DTD/svg11.dtd"><svg width="100%" height="100%" viewBox="0 0 230 61" version="1.1" xmlns="http://www.w3.org/2000/svg" xmlns:xlink="http://www.w3.org/1999/xlink" xml:space="preserve" xmlns:serif="http://www.serif.com/" style="fill-rule:evenodd;clip-rule:evenodd;stroke-linejoin:round;stroke-miterlimit:1.41421;"><g id="For-Dark-BG" serif:id="For Dark BG"><g id="Brackets"><path d="M31.196,54.994l0,5.396l-31.196,-30.195l31.196,-30.195l0,5.281l-25.621,24.914l25.621,24.799Z" style="fill:#d0eb00;fill-rule:nonzero;"/><path d="M185.395,0l4.27,0l-27.281,60.39l-4.27,0l27.281,-60.39Z" style="fill:#d0eb00;fill-rule:nonzero;"/><path d="M197.968,5.281l0,-5.281l31.196,30.195l-31.196,30.195l0,-5.396l25.74,-24.799l-25.74,-24.914Z" style="fill:#d0eb00;fill-rule:nonzero;"/></g><g id="Text"><path d="M46.972,53.272c2.293,2.219 5.041,3.329 8.243,3.329c3.203,0 5.951,-1.11 8.244,-3.329c2.293,-2.22 3.44,-4.899 3.44,-8.037l3.914,0c0,4.21 -1.522,7.788 -4.567,10.735c-3.044,2.946 -6.721,4.42 -11.031,4.42c-4.309,0 -7.986,-1.474 -11.031,-4.42c-3.044,-2.947 -4.567,-6.525 -4.567,-10.735l0,-30.195c0,-4.133 1.523,-7.673 4.567,-10.62c3.045,-2.947 6.722,-4.42 11.031,-4.42c4.31,0 7.987,1.473 11.031,4.42c3.045,2.947 4.567,6.487 4.567,10.62l-3.914,0c0,-3.138 -1.147,-5.798 -3.44,-7.979c-2.293,-2.182 -5.041,-3.272 -8.244,-3.272c-3.202,0 -5.95,1.09 -8.243,3.272c-2.294,2.181 -3.44,4.841 -3.44,7.979l0,30.195c0,3.138 1.146,5.817 3.44,8.037Z" style="fill:#e9e9e9;fill-rule:nonzero;"/><path d="M106.398,0l3.914,0l0,45.235c0,4.21 -1.522,7.788 -4.567,10.735c-3.044,2.946 -6.721,4.42 -11.031,4.42c-4.31,0 -7.987,-1.474 -11.031,-4.42c-3.045,-2.947 -4.567,-6.525 -4.567,-10.735l3.914,0c0,3.138 1.147,5.817 3.44,8.037c2.294,2.219 5.041,3.329 8.244,3.329c3.203,0 5.951,-1.11 8.244,-3.329c2.293,-2.22 3.44,-4.899 3.44,-8.037l0,-45.235Z" style="fill:#e9e9e9;fill-rule:nonzero;"/><path d="M118.615,0l31.196,0l0,3.789l-13.641,0l0,56.601l-3.914,0l0,-56.601l-13.641,0l0,-3.789Z" style="fill:#e9e9e9;fill-rule:nonzero;"/></g></g><g><g id="Brackets1" serif:id="Brackets"><path d="M31.196,54.994l0,5.396l-31.196,-30.195l31.196,-30.195l0,5.281l-25.621,24.914l25.621,24.799Z" style="fill:#d0eb00;fill-rule:nonzero;"/><path d="M185.395,0l4.27,0l-27.281,60.39l-4.27,0l27.281,-60.39Z" style="fill:#d0eb00;fill-rule:nonzero;"/><path d="M197.968,5.281l0,-5.281l31.196,30.195l-31.196,30.195l0,-5.396l25.74,-24.799l-25.74,-24.914Z" style="fill:#d0eb00;fill-rule:nonzero;"/></g><g id="Text1" serif:id="Text"><path d="M46.972,53.272c2.293,2.219 5.041,3.329 8.243,3.329c3.203,0 5.951,-1.11 8.244,-3.329c2.293,-2.22 3.44,-4.899 3.44,-8.037l3.914,0c0,4.21 -1.522,7.788 -4.567,10.735c-3.044,2.946 -6.721,4.42 -11.031,4.42c-4.309,0 -7.986,-1.474 -11.031,-4.42c-3.044,-2.947 -4.567,-6.525 -4.567,-10.735l0,-30.195c0,-4.133 1.523,-7.673 4.567,-10.62c3.045,-2.947 6.722,-4.42 11.031,-4.42c4.31,0 7.987,1.473 11.031,4.42c3.045,2.947 4.567,6.487 4.567,10.62l-3.914,0c0,-3.138 -1.147,-5.798 -3.44,-7.979c-2.293,-2.182 -5.041,-3.272 -8.244,-3.272c-3.202,0 -5.95,1.09 -8.243,3.272c-2.294,2.181 -3.44,4.841 -3.44,7.979l0,30.195c0,3.138 1.146,5.817 3.44,8.037Z" style="fill:#e9e9e9;fill-rule:nonzero;"/><path d="M106.398,0l3.914,0l0,45.235c0,4.21 -1.522,7.788 -4.567,10.735c-3.044,2.946 -6.721,4.42 -11.031,4.42c-4.31,0 -7.987,-1.474 -11.031,-4.42c-3.045,-2.947 -4.567,-6.525 -4.567,-10.735l3.914,0c0,3.138 1.147,5.817 3.44,8.037c2.294,2.219 5.041,3.329 8.244,3.329c3.203,0 5.951,-1.11 8.244,-3.329c2.293,-2.22 3.44,-4.899 3.44,-8.037l0,-45.235Z" style="fill:#e9e9e9;fill-rule:nonzero;"/><path d="M118.615,0l31.196,0l0,3.789l-13.641,0l0,56.601l-3.914,0l0,-56.601l-13.641,0l0,-3.789Z" style="fill:#e9e9e9;fill-rule:nonzero;"/></g></g></svg>